HIERARCHY
ROOT Hips
{
	OFFSET 0.00000 0.00000 0.00000
	CHANNELS 6 Xposition Yposition Zposition Zrotation Yrotation Xrotation 
	JOINT LHipJoint
	{
		OFFSET 0 0 0
		CHANNELS 3 Zrotation Yrotation Xrotation
		JOINT LeftUpLeg
		{
			OFFSET 1.80322 -1.53100 0.99595
			CHANNELS 3 Zrotation Yrotation Xrotation
			JOINT LeftLeg
			{
				OFFSET 2.25177 -6.18669 0.00000
				CHANNELS 3 Zrotation Yrotation Xrotation
				JOINT LeftFoot
				{
					OFFSET 2.26601 -6.22582 0.00000
					CHANNELS 3 Zrotation Yrotation Xrotation
					JOINT LeftToeBase
					{
						OFFSET 0.23701 -0.65119 2.15848
						CHANNELS 3 Zrotation Yrotation Xrotation
						End Site
						{
							OFFSET 0.00000 -0.00000 1.12949
						}
					}
				}
			}
		}
	}
	JOINT RHipJoint
	{
		OFFSET 0 0 0
		CHANNELS 3 Zrotation Yrotation Xrotation
		JOINT RightUpLeg
		{
			OFFSET -1.93977 -1.53100 0.99595
			CHANNELS 3 Zrotation Yrotation Xrotation
			JOINT RightLeg
			{
				OFFSET -2.28036 -6.26523 0.00000
				CHANNELS 3 Zrotation Yrotation Xrotation
				JOINT RightFoot
				{
					OFFSET -2.25490 -6.19528 0.00000
					CHANNELS 3 Zrotation Yrotation Xrotation
					JOINT RightToeBase
					{
						OFFSET -0.28375 -0.77960 2.23137
						CHANNELS 3 Zrotation Yrotation Xrotation
						End Site
						{
							OFFSET -0.00000 -0.00000 1.17899
						}
					}
				}
			}
		}
	}
	JOINT LowerBack
	{
		OFFSET 0 0 0
		CHANNELS 3 Zrotation Yrotation Xrotation
		JOINT Spine
		{
			OFFSET -0.00088 2.12090 -0.02806
			CHANNELS 3 Zrotation Yrotation Xrotation
			JOINT Spine1
			{
				OFFSET -0.00286 2.09666 0.12974
				CHANNELS 3 Zrotation Yrotation Xrotation
				JOINT Neck
				{
					OFFSET 0 0 0
					CHANNELS 3 Zrotation Yrotation Xrotation
					JOINT Neck1
					{
						OFFSET 0.07328 1.83526 0.07290
						CHANNELS 3 Zrotation Yrotation Xrotation
						JOINT Head
						{
							OFFSET -0.06683 1.74974 -0.49542
							CHANNELS 3 Zrotation Yrotation Xrotation
							End Site
							{
								OFFSET -0.03398 1.85163 -0.17573
							}
						}
					}
				}
				JOINT LeftShoulder
				{
					OFFSET 0 0 0
					CHANNELS 3 Zrotation Yrotation Xrotation
					JOINT LeftArm
					{
						OFFSET 3.02113 1.18018 0.40602
						CHANNELS 3 Zrotation Yrotation Xrotation
						JOINT LeftForeArm
						{
							OFFSET 4.58538 -0.00000 -0.00000
							CHANNELS 3 Zrotation Yrotation Xrotation
							JOINT LeftHand
							{
								OFFSET 2.68935 -0.00000 -0.00000
								CHANNELS 3 Zrotation Yrotation Xrotation
								JOINT LeftFingerBase
								{
									OFFSET 0 0 0
									CHANNELS 3 Zrotation Yrotation Xrotation
									JOINT LeftHandIndex1
									{
										OFFSET 0.58506 -0.00000 -0.00000
										CHANNELS 3 Zrotation Yrotation Xrotation
										End Site
										{
											OFFSET 0.47169 -0.00000 -0.00000
										}
									}
								}
								JOINT LThumb
								{
									OFFSET 0 0 0
									CHANNELS 3 Zrotation Yrotation Xrotation
									End Site
									{
										OFFSET 0.47889 -0.00000 0.47889
									}
								}
							}
						}
					}
				}
				JOINT RightShoulder
				{
					OFFSET 0 0 0
					CHANNELS 3 Zrotation Yrotation Xrotation
					JOINT RightArm
					{
						OFFSET -2.95074 1.18843 0.31430
						CHANNELS 3 Zrotation Yrotation Xrotation
						JOINT RightForeArm
						{
							OFFSET -4.47450 -0.00000 -0.00000
							CHANNELS 3 Zrotation Yrotation Xrotation
							JOINT RightHand
							{
								OFFSET -2.93896 -0.00000 -0.00000
								CHANNELS 3 Zrotation Yrotation Xrotation
								JOINT RightFingerBase
								{
									OFFSET 0 0 0
									CHANNELS 3 Zrotation Yrotation Xrotation
									JOINT RightHandIndex1
									{
										OFFSET -0.40509 -0.00000 -0.00000
										CHANNELS 3 Zrotation Yrotation Xrotation
										End Site
										{
											OFFSET -0.32660 -0.00000 -0.00000
										}
									}
								}
								JOINT RThumb
								{
									OFFSET 0 0 0
									CHANNELS 3 Zrotation Yrotation Xrotation
									End Site
									{
										OFFSET -0.33158 -0.00000 0.33158
									}
								}
							}
						}
					}
				}
			}
		}
	}
}
MOTION
Frames: 7
Frame Time: .0083333
13.2229 15.4111 -16.6846 -352.7930 6.9577 -345.1070 0.0000 0.0000 0.0000 -32.4439 6.7160 3.0989 0.0000 0.0000 0.0000 -0.6760 17.2536 -16.6283 0.5104 -4.5794 -12.7128 0.0000 0.0000 0.0000 21.6252 10.2868 -37.9637 -2.2246 -9.3191 26.7986 0.4067 -25.0637 -32.8062 -1.5950 -7.9660 22.6110 -4.3464 -4.0054 -6.9066 0.3749 -5.1443 -6.8143 2.5706 -2.4028 -2.7985 1.2528 -3.0655 -15.3405 1.5480 -6.1423 40.9611 -0.6868 -2.0888 17.7830 -0.0000 -0.0000 0.0000 -65.3165 4.4942 9.8061 24.6913 -35.8868 -8.1082 -0.0000 -0.0000 9.2755 10.9934 15.7005 3.0092 -7.1250 0.0000 -0.0000 -15.5296 45.3695 -0.1452 -0.0000 -0.0000 0.0000 81.8440 -15.6796 -0.6851 -13.2079 21.5910 -2.5293 0.0000 0.0000 14.2057 -12.8584 -5.4700 1.2465 7.1250 -0.0000 -0.0000 11.4994 -35.3932 2.7599
13.2416 15.4088 -16.5916 -352.7360 6.2827 -345.1830 0.0000 0.0000 0.0000 -32.5285 7.2539 3.3718 0.0000 -0.0000 -0.0000 -0.6899 17.1777 -16.2226 0.6197 -5.0380 -14.0169 0.0000 0.0000 0.0000 21.8926 9.8045 -37.8606 -2.2617 -9.3911 27.0267 0.4643 -24.9082 -32.2031 -1.5284 -7.8057 22.1253 -4.1964 -4.0077 -7.0453 0.3633 -5.1496 -6.8745 2.4683 -2.4115 -2.7975 1.2176 -3.0009 -15.2713 1.4140 -5.9875 41.0378 -0.7133 -2.0546 17.8012 0.0000 0.0000 0.0000 -65.8196 4.5889 10.1218 25.3327 -36.5421 -8.4872 -0.0000 -0.0000 8.8988 10.8743 15.7728 2.9892 -7.1250 0.0000 -0.0000 -15.6604 45.4258 -0.1688 0.0000 0.0000 0.0000 81.9751 -15.8719 -0.7486 -13.1796 21.5498 -2.5189 0.0000 0.0000 14.4202 -12.6362 -5.3446 1.1963 7.1250 -0.0000 -0.0000 11.6607 -35.2562 2.8397
13.2577 15.4101 -16.4970 -352.7190 5.6373 -345.2730 0.0000 0.0000 0.0000 -32.5470 7.7772 3.6518 0.0000 0.0000 0.0000 -0.7136 17.1439 -15.7303 0.7397 -5.4942 -15.3236 0.0000 0.0000 0.0000 22.1397 9.4168 -37.7232 -2.2873 -9.4404 27.1829 0.5215 -24.6149 -31.3730 -1.4330 -7.5688 21.4118 -4.0080 -4.0125 -7.1681 0.3663 -5.1609 -6.9335 2.3607 -2.4244 -2.8055 1.1959 -2.9311 -15.2085 1.2649 -5.8223 41.1079 -0.7473 -2.0162 17.8162 -0.0000 -0.0000 0.0000 -66.3598 4.7222 10.4610 25.9916 -37.2004 -8.8826 -0.0000 -0.0000 8.5693 10.7351 15.8827 2.9701 -7.1250 0.0000 -0.0000 -15.8216 45.5159 -0.2067 -0.0000 -0.0000 0.0000 82.0954 -16.0625 -0.7542 -13.1652 21.5288 -2.5136 0.0000 0.0000 14.5594 -12.4044 -5.2526 1.1535 7.1250 -0.0000 -0.0000 11.8350 -35.1527 2.9141
13.2713 15.4143 -16.4014 -352.7500 5.0152 -345.3830 0.0000 0.0000 0.0000 -32.5544 7.5316 1.7862 0.0578 1.5517 4.2683 -0.4937 16.2524 -17.3031 0.8699 -5.9468 -16.6302 0.0000 0.0000 0.0000 22.3745 9.1455 -37.5121 -2.2991 -9.4631 27.2550 0.5679 -24.1779 -30.3644 -1.3309 -7.3055 20.6236 -3.7791 -4.0170 -7.2686 0.3854 -5.1745 -6.9838 2.2484 -2.4397 -2.8184 1.1965 -2.8554 -15.1694 1.0952 -5.6471 41.1748 -0.7936 -1.9729 17.8340 -0.0000 0.0000 0.0000 -66.9382 4.8669 10.7953 26.6403 -37.8340 -9.2777 -0.0000 -0.0000 8.3086 10.6082 16.0019 2.9556 -7.1250 0.0000 -0.0000 -15.9754 45.6164 -0.2495 -0.0000 0.0000 0.0000 82.2069 -16.2284 -0.7298 -13.1563 21.5158 -2.5103 0.0000 0.0000 14.6564 -12.1793 -5.2127 1.1234 7.1250 -0.0000 -0.0000 12.0121 -35.1017 2.9745
13.2823 15.4197 -16.3049 -352.8310 4.4058 -345.5250 0.0000 0.0000 0.0000 -32.4347 7.4119 0.2405 0.2000 2.8799 7.9445 -0.3069 15.4617 -18.4286 1.0048 -6.3786 -17.8870 0.0000 0.0000 0.0000 22.6135 8.9965 -37.1775 -2.2982 -9.4614 27.2496 0.5914 -23.6457 -29.3383 -1.2476 -7.0819 19.9584 -3.5154 -4.0186 -7.3344 0.4208 -5.1875 -7.0240 2.1359 -2.4558 -2.8412 1.2193 -2.7745 -15.1425 0.9073 -5.4634 41.2366 -0.8511 -1.9253 17.8509 -0.0000 0.0000 0.0000 -67.5529 5.0225 11.1253 27.2665 -38.4321 -9.6643 -0.0000 -0.0000 8.1105 10.5117 16.0526 2.9372 -7.1250 0.0000 -0.0000 -16.0792 45.6538 -0.2664 -0.0000 0.0000 0.0000 82.3074 -16.3722 -0.6717 -13.1511 21.5082 -2.5084 0.0000 0.0000 14.7217 -11.9577 -5.1950 1.0986 7.1250 -0.0000 -0.0000 12.1898 -35.0732 3.0288
13.2905 15.4253 -16.2079 -352.9550 3.7894 -345.7020 0.0000 0.0000 0.0000 -32.2069 7.4165 -1.0483 0.3926 4.0232 11.1418 -0.1617 14.7639 -19.1191 1.1496 -6.8080 -19.1477 0.0000 0.0000 0.0000 22.8847 8.9330 -36.7106 -2.2877 -9.4412 27.1854 0.5936 -23.0800 -28.3971 -1.1923 -6.9288 19.5046 -3.2308 -4.0152 -7.3618 0.4723 -5.1961 -7.0503 2.0309 -2.4703 -2.8712 1.2640 -2.6868 -15.1273 0.7018 -5.2688 41.2917 -0.9188 -1.8723 17.8661 0.0000 0.0000 0.0000 -68.2055 5.1893 11.4421 27.8638 -38.9905 -10.0378 -0.0000 -0.0000 7.9686 10.4484 16.0374 2.9164 -7.1250 0.0000 -0.0000 -16.1312 45.6315 -0.2582 0.0000 0.0000 0.0000 82.3921 -16.4793 -0.5964 -13.1419 21.4947 -2.5050 0.0000 0.0000 14.7963 -11.7418 -5.1864 1.0764 7.1250 -0.0000 -0.0000 12.3643 -35.0540 3.0798
13.2961 15.4309 -16.1112 -353.1130 3.1570 -345.9130 0.0000 0.0000 0.0000 -31.8962 7.7415 -2.3797 0.6404 5.1197 14.2504 -0.0234 13.8361 -19.3889 1.3044 -7.2351 -20.4137 0.0000 0.0000 0.0000 23.2057 8.9116 -36.1275 -2.2708 -9.4088 27.0827 0.5837 -22.5567 -27.6110 -1.1670 -6.8575 19.2939 -2.9388 -4.0055 -7.3453 0.5352 -5.1979 -7.0649 1.9366 -2.4814 -2.9134 1.3284 -2.5930 -15.1133 0.4883 -5.0673 41.3358 -0.9925 -1.8149 17.8751 0.0000 0.0000 0.0000 -68.8880 5.3639 11.7499 28.4275 -39.5068 -10.3945 -0.0000 -0.0000 7.8768 10.4076 15.9231 2.8847 -7.1250 0.0000 -0.0000 -16.1294 45.5156 -0.2108 0.0000 0.0000 0.0000 82.4641 -16.5535 -0.4923 -13.1309 21.4787 -2.5010 0.0000 0.0000 14.8774 -11.5325 -5.1699 1.0533 7.1250 -0.0000 -0.0000 12.5319 -35.0274 3.1315
